<svg width="28" height="28" viewBox="0 0 28 28" fill="none" xmlns="http://www.w3.org/2000/svg">
<path d="M11.667 1.95833H16.333C19.4431 1.95833 21.5436 2.62494 22.876 3.95736C24.2084 5.28977 24.875 7.39022 24.875 10.5003V17.5003C24.875 20.6102 24.2083 22.7109 22.876 24.0433C21.5435 25.3755 19.4429 26.0413 16.333 26.0413H11.667C8.55714 26.0413 6.45645 25.3755 5.12402 24.0433C3.79166 22.7109 3.12505 20.6102 3.125 17.5003V10.5003C3.125 7.39022 3.79161 5.28977 5.12402 3.95736C6.37322 2.70816 8.2972 2.04418 11.0957 1.96614L11.667 1.95833ZM11.667 2.70833C8.94255 2.70833 6.94639 3.18772 5.65039 4.48372C4.35439 5.77972 3.875 7.77588 3.875 10.5003V17.5003C3.87504 20.2245 4.35456 22.22 5.65039 23.5159C6.94639 24.8119 8.94255 25.2913 11.667 25.2913H16.333C19.0575 25.2913 21.0536 24.8119 22.3496 23.5159C23.6454 22.22 24.125 20.2245 24.125 17.5003V10.5003C24.125 7.77588 23.6456 5.77972 22.3496 4.48372C21.0536 3.18772 19.0575 2.70833 16.333 2.70833H11.667Z" fill="#292D32" stroke="white"/>
<path d="M10.5 6.71833H17.5C18.6705 6.71833 19.625 7.67281 19.625 8.84333V10.0103C19.6248 11.1807 18.6704 12.1353 17.5 12.1353H10.5C9.32958 12.1353 8.37518 11.1807 8.375 10.0103V8.84333L8.38574 8.62654C8.49489 7.5572 9.40264 6.71833 10.5 6.71833ZM10.5 7.46833C9.74552 7.46833 9.125 8.08886 9.125 8.84333V10.0103C9.12518 10.7647 9.74563 11.3853 10.5 11.3853H17.5C18.2544 11.3853 18.8748 10.7647 18.875 10.0103V8.84333C18.875 8.08886 18.2545 7.46833 17.5 7.46833H10.5Z" fill="#292D32" stroke="white"/>
<path d="M9.39343 15.585C9.59291 15.5414 9.82993 15.6123 9.98328 15.7657C10.0499 15.8323 10.0988 15.9037 10.1268 15.9766L10.1317 15.9893C10.1687 16.0781 10.1864 16.1645 10.1864 16.2403C10.1863 16.4148 10.1168 16.5814 9.98328 16.7149C9.85889 16.8393 9.6959 16.9062 9.50867 16.9063C9.43291 16.9063 9.34647 16.8886 9.25769 16.8516C9.16962 16.8149 9.09762 16.7677 9.0448 16.7149C8.92053 16.5905 8.85346 16.4274 8.85339 16.2403C8.85339 16.1385 8.86911 16.0549 8.89636 15.9893L8.90125 15.9766C8.9304 15.9008 8.96935 15.8412 9.0448 15.7657C9.0569 15.7536 9.06639 15.7447 9.07507 15.7364C9.08344 15.7284 9.08977 15.7219 9.0946 15.7178C9.10199 15.7116 9.10302 15.7112 9.09851 15.7139L9.13757 15.6954L9.17859 15.6621C9.17952 15.6614 9.18476 15.6578 9.19324 15.6534C9.20154 15.6491 9.2121 15.6445 9.22351 15.6407L9.25671 15.6299L9.28894 15.6143C9.29512 15.6112 9.30667 15.6057 9.32312 15.6006C9.33925 15.5957 9.35553 15.5921 9.36902 15.5899L9.38171 15.5879L9.39343 15.585Z" fill="#292D32" stroke="white"/>
<path d="M14.0562 15.586C14.1737 15.5613 14.3039 15.5714 14.436 15.627L14.438 15.628C14.521 15.6626 14.5884 15.7077 14.6401 15.7569C14.7288 15.8563 14.7699 15.9147 14.7935 15.9757V15.9767L14.7983 15.9893C14.8353 16.0781 14.853 16.1646 14.853 16.2403C14.8529 16.4148 14.7834 16.5815 14.6499 16.7149C14.5237 16.8411 14.3599 16.9063 14.187 16.9063C13.9997 16.9063 13.8359 16.8394 13.7114 16.7149C13.5872 16.5906 13.5201 16.4275 13.52 16.2403C13.52 16.1386 13.5358 16.0549 13.563 15.9893L13.5679 15.9757C13.5971 15.8998 13.6358 15.8404 13.7114 15.7647C13.7235 15.7526 13.733 15.7447 13.7417 15.7364C13.7501 15.7284 13.7564 15.722 13.7612 15.7179C13.7686 15.7116 13.7697 15.7112 13.7651 15.714L13.8042 15.6954L13.8452 15.6622C13.8461 15.6615 13.8514 15.6578 13.8599 15.6534C13.8682 15.6491 13.8787 15.6445 13.8901 15.6407L13.9233 15.63L13.9556 15.6143C13.9617 15.6113 13.9733 15.6057 13.9897 15.6007C14.0059 15.5957 14.0221 15.5922 14.0356 15.5899L14.0464 15.588L14.0562 15.586Z" fill="#292D32" stroke="white"/>
<path d="M18.3781 15.7657C18.6145 15.5292 19.0801 15.5292 19.3165 15.7657C19.448 15.8972 19.5197 16.0748 19.5197 16.2403C19.5196 16.4148 19.45 16.5814 19.3165 16.7149C19.1993 16.8321 19.0344 16.9062 18.8419 16.9063C18.7662 16.9063 18.6797 16.8886 18.5909 16.8516C18.5029 16.8149 18.4309 16.7677 18.3781 16.7149C18.3112 16.6479 18.2647 16.5755 18.2296 16.4912C18.2023 16.4257 18.1867 16.3421 18.1866 16.2403C18.1866 16.1385 18.2024 16.0548 18.2296 15.9893L18.2345 15.9766C18.2637 15.9008 18.3026 15.8412 18.3781 15.7657Z" fill="#292D32" stroke="white"/>
<path d="M9.37585 20.2551C9.57992 20.218 9.78027 20.27 9.92468 20.3811L9.98328 20.4319C10.0114 20.46 10.0347 20.4903 10.0673 20.5305C10.0759 20.5477 10.085 20.565 10.0936 20.5823C10.1055 20.6061 10.1178 20.6297 10.1298 20.6536C10.1379 20.6779 10.1461 20.7025 10.1542 20.7268C10.1603 20.7451 10.1666 20.7632 10.1727 20.7815C10.1823 20.8487 10.1864 20.8742 10.1864 20.9065C10.1864 21.081 10.1167 21.2476 9.98328 21.3811C9.85707 21.5073 9.69325 21.5734 9.52039 21.5735C9.33304 21.5735 9.16925 21.5056 9.0448 21.3811C8.9115 21.2476 8.84167 21.0809 8.84167 20.9065C8.84172 20.7411 8.91338 20.5634 9.0448 20.4319C9.05471 20.422 9.07147 20.4076 9.08972 20.3928C9.09844 20.3858 9.10648 20.3791 9.11316 20.3743C9.11625 20.3721 9.11903 20.3707 9.12097 20.3694C9.12192 20.3688 9.12238 20.3678 9.12292 20.3674H9.1239L9.1532 20.3499L9.17859 20.3284C9.17952 20.3276 9.18476 20.325 9.19324 20.3206C9.20157 20.3162 9.21202 20.3117 9.22351 20.3079L9.25671 20.2961L9.28894 20.2805C9.29517 20.2774 9.30686 20.2728 9.32312 20.2678C9.33928 20.2629 9.3555 20.2584 9.36902 20.2561L9.37585 20.2551Z" fill="#292D32" stroke="white"/>
<path d="M14.3159 20.2551L14.3257 20.2561C14.3392 20.2584 14.3564 20.2628 14.3726 20.2678C14.3888 20.2728 14.4006 20.2775 14.4067 20.2805L14.438 20.2961L14.4722 20.3079C14.4837 20.3117 14.4941 20.3162 14.5024 20.3206C14.5105 20.3248 14.515 20.3275 14.5161 20.3284L14.5425 20.3499L14.5708 20.3674C14.5745 20.3703 14.5816 20.3759 14.5923 20.385C14.6052 20.3959 14.615 20.4044 14.6333 20.4202C14.64 20.4259 14.6477 20.4319 14.6558 20.4387C14.7744 20.5609 14.8413 20.7313 14.8413 20.9065C14.8413 21.0937 14.7742 21.2567 14.6499 21.3811C14.5237 21.5073 14.3599 21.5734 14.187 21.5735C13.9997 21.5735 13.8359 21.5056 13.7114 21.3811C13.5781 21.2476 13.5083 21.0809 13.5083 20.9065C13.5084 20.7411 13.58 20.5634 13.7114 20.4319C13.8566 20.2867 14.0957 20.2139 14.3159 20.2551Z" fill="#292D32" stroke="white"/>
<path d="M18.59 20.2943C18.8489 20.1914 19.1499 20.2597 19.3097 20.4252L19.3165 20.432C19.4391 20.5547 19.5079 20.7284 19.5079 20.9066C19.5079 21.0939 19.4409 21.2568 19.3165 21.3812C19.2637 21.4341 19.1927 21.4823 19.1046 21.5189C19.0185 21.5548 18.9318 21.5736 18.8419 21.5736C18.6689 21.5736 18.5043 21.5075 18.3781 21.3812C18.2538 21.2568 18.1866 21.0938 18.1866 20.9066C18.1867 20.7285 18.2556 20.5547 18.3781 20.432C18.4308 20.3793 18.5021 20.331 18.59 20.2943Z" fill="#292D32" stroke="white"/>
</svg>
