<svg width="28" height="28" viewBox="0 0 28 28" fill="none" xmlns="http://www.w3.org/2000/svg">
<path d="M10.5004 1.95834H17.5004C20.6103 1.95839 22.711 2.625 24.0433 3.95737C25.3755 5.2898 26.0414 7.39049 26.0414 10.5003V17.5003C26.0413 20.6103 25.3757 22.7109 24.0433 24.0433C22.711 25.3757 20.6103 26.0413 17.5004 26.0414H10.5004C7.39052 26.0414 5.28983 25.3755 3.9574 24.0433C2.62503 22.7109 1.95842 20.6103 1.95837 17.5003V10.5003C1.95837 7.39023 2.62499 5.28978 3.9574 3.95737C5.28981 2.62495 7.39026 1.95834 10.5004 1.95834ZM10.5004 2.70834C7.77592 2.70834 5.77977 3.18773 4.48376 4.48373C3.18776 5.77973 2.70837 7.77589 2.70837 10.5003V17.5003C2.70841 20.2245 3.18794 22.22 4.48376 23.516C5.77977 24.812 7.77592 25.2914 10.5004 25.2914H17.5004C20.2246 25.2913 22.22 24.8119 23.516 23.516C24.8119 22.22 25.2913 20.2246 25.2914 17.5003V10.5003C25.2914 7.77589 24.812 5.77973 23.516 4.48373C22.22 3.18791 20.2245 2.70838 17.5004 2.70834H10.5004Z" fill="#292D32" stroke="white"/>
<path d="M18.083 6.04166C19.5801 6.04166 20.7918 7.25262 20.792 8.74966V19.2497C20.792 20.7469 19.5802 21.9586 18.083 21.9586C16.586 21.9585 15.375 20.7467 15.375 19.2497V8.74966C15.3752 7.25273 16.5861 6.04183 18.083 6.04166ZM18.083 6.79166C17.0021 6.79183 16.1252 7.66878 16.125 8.74966V19.2497C16.125 20.3307 17.002 21.2085 18.083 21.2086C19.1642 21.2086 20.042 20.3308 20.042 19.2497V8.74966C20.0418 7.66867 19.164 6.79166 18.083 6.79166Z" fill="#292D32" stroke="white"/>
<path d="M9.91638 12.4583C11.4135 12.4583 12.6252 13.6693 12.6254 15.1664V19.2503C12.6252 20.7474 11.4135 21.9583 9.91638 21.9583C8.41945 21.9582 7.20855 20.7473 7.20837 19.2503V15.1664C7.20855 13.6694 8.41945 12.4585 9.91638 12.4583ZM9.91638 13.2083C8.8355 13.2085 7.95855 14.0855 7.95837 15.1664V19.2503C7.95855 20.3312 8.8355 21.2082 9.91638 21.2083C10.9974 21.2083 11.8752 20.3313 11.8754 19.2503V15.1664C11.8752 14.0854 10.9974 13.2083 9.91638 13.2083Z" fill="#292D32" stroke="white"/>
</svg>
