<svg width="28" height="28" viewBox="0 0 28 28" fill="none" xmlns="http://www.w3.org/2000/svg">
<path d="M11.5137 2.99069C12.8912 1.88065 15.0923 1.8877 16.4873 3.00339V3.00436L24.5723 9.46725C25.0598 9.86076 25.4739 10.4738 25.7383 11.1694C26.0028 11.8654 26.1008 12.601 26.001 13.2202L24.4502 22.5034C24.1407 24.3287 22.3767 25.8198 20.5332 25.8198H7.4668C5.64575 25.8198 3.96755 24.4522 3.58301 22.6772L3.5498 22.5044L1.99805 13.2173V13.2163L1.96777 12.9799C1.91941 12.4159 2.02086 11.7776 2.25195 11.1694C2.5161 10.4744 2.93357 9.86081 3.42676 9.46725H3.42773L11.5127 2.99167L11.5137 2.99069ZM13.9883 2.93015C13.2773 2.93015 12.5436 3.14367 11.9854 3.58737L11.9844 3.58835L3.89941 10.063L3.89746 10.0639C3.47705 10.4032 3.1529 10.9193 2.95215 11.4448C2.75157 11.97 2.64962 12.5697 2.73828 13.102L4.29004 22.3891V22.3911C4.54105 23.8553 5.97409 25.0698 7.4668 25.0698H20.5332C22.027 25.0698 23.4584 23.8538 23.709 22.3784L23.71 22.3774L25.2617 13.0913V13.0903C25.3506 12.5563 25.2436 11.9533 25.042 11.4282C24.8404 10.9031 24.5174 10.3865 24.1016 10.0522L24.1006 10.0512L16.0156 3.58835V3.58737L16.0098 3.58347L15.7891 3.42917C15.2592 3.09375 14.6208 2.93017 13.9883 2.93015Z" fill="#292D32" stroke="white"/>
<path d="M14.0004 11.875C15.8124 11.8752 17.2914 13.3549 17.2914 15.167C17.2912 16.9789 15.8123 18.4578 14.0004 18.458C12.1883 18.458 10.7086 16.979 10.7084 15.167C10.7084 13.3548 12.1882 11.875 14.0004 11.875ZM14.0004 12.625C12.6042 12.625 11.4584 13.7708 11.4584 15.167C11.4586 16.563 12.6043 17.708 14.0004 17.708C15.3963 17.7078 16.5412 16.5629 16.5414 15.167C16.5414 13.771 15.3964 12.6252 14.0004 12.625Z" fill="#292D32" stroke="white"/>
</svg>
